<?xml version="1.0" encoding="utf-8"?>
<!-- Generator: Adobe Illustrator 26.5.0, SVG Export Plug-In . SVG Version: 6.00 Build 0)  -->
<svg version="1.1" id="Layer_1" xmlns="http://www.w3.org/2000/svg" xmlns:xlink="http://www.w3.org/1999/xlink" x="0px" y="0px"
	 viewBox="0 0 670 422" style="enable-background:new 0 0 670 422;" xml:space="preserve">
<style type="text/css">
	.st0{clip-path:url(#SVGID_00000031915343919779326190000013873862309949140402_);}
	.st1{fill:#0C6BC5;}
	.st2{fill:#1B6FBF;}
	.st3{fill:#80ACD6;}
	.st4{fill:#ED8B00;}
	.st5{fill:#FFF5D1;}
	.st6{fill-rule:evenodd;clip-rule:evenodd;fill:#A5958C;}
	.st7{fill-rule:evenodd;clip-rule:evenodd;fill:#C7BEB7;}
	.st8{fill:#2C2334;}
	.st9{fill:#604C64;}
	.st10{fill:#6C5670;}
	.st11{fill:#293820;}
	.st12{fill:#FCB795;}
	.st13{fill:#FFA273;}
	.st14{fill:#C4B1D7;}
	.st15{fill:#7C6B8D;}
	.st16{fill:#FFB28A;}
	.st17{fill:#FFFFFF;}
	.st18{fill:#E6CFC5;}
	.st19{opacity:0.16;fill:#2C2334;enable-background:new    ;}
	.st20{fill:#FAE8E1;}
	.st21{fill:#D6C1B7;}
	.st22{fill:#60959C;}
</style>
<g>
	<defs>
		<rect id="SVGID_1_" y="-51" width="670" height="473"/>
	</defs>
	<clipPath id="SVGID_00000132055574926523304430000000088038180287465096_">
		<use xlink:href="#SVGID_1_"  style="overflow:visible;"/>
	</clipPath>
	<g style="clip-path:url(#SVGID_00000132055574926523304430000000088038180287465096_);">
		<g>
			<path class="st1" d="M8.5,52.71h112.08c0,0-25.41-27.66-44.28-15.21C57.42,49.95,55.6,54.32,42.75,45.8
				C29.9,37.28,8.5,52.71,8.5,52.71z"/>
		</g>
		<g>
			<path class="st1" d="M522.42,26.22H634.5c0,0-25.41-27.66-44.28-15.21c-18.87,12.45-20.69,16.83-33.54,8.31
				C543.82,10.8,522.42,26.22,522.42,26.22z"/>
		</g>
		<path class="st2" d="M632.82,239.6v99.86l-26.42-26.32l-51.69,51.48h-94.83l99.11-98.71l-26.42-26.32H632.82L632.82,239.6z"/>
		<path class="st3" d="M552.02,268.52v75.69l-20.03-19.95l-44.7,44.51h-71.87l80.63-80.3l-20.03-19.95L552.02,268.52L552.02,268.52z
			"/>
		<path class="st4" d="M565.86,72.46V189.4l-30.95-30.82L316.44,376.19H205.4l273.99-272.91l-30.94-30.82L565.86,72.46L565.86,72.46
			z"/>
		<g>
			<path class="st5" d="M447.13,107.83v71.13l-18.82-18.74L205.94,381.7h-67.55l256.15-255.11l-18.83-18.75L447.13,107.83
				L447.13,107.83z"/>
		</g>
		<path class="st6" d="M271.85,262.23l-32.1,76.77H100.1v-45.6c0-4.95,4.25-9.1,9.85-9.61c21.07-1.95,53.2-10.05,64.51-21.57
			L271.85,262.23L271.85,262.23z M109.51,339.01h-9.41v53.46h9.41V339.01z M226.56,392.47l-17.14-53.46h9.41l17.14,53.46H226.56z"/>
		<path class="st7" d="M275.11,339.15l5.39-76.92h-44.26c-10.54,11.58-27.55,19.71-47.26,21.66c-5.23,0.51-9.19,4.67-9.19,9.62
			v32.45h-79.69v13.04h79.69h-1.97v53.46h9.41v-53.31h78.45l17.65,53.31h9.41l-17.65-53.31H275.11L275.11,339.15z"/>
		<path class="st8" d="M170.8,325.97h-56.77l4.03-16.08h42.08c0,0,1.07,6.92,7.12,8.12C172.74,319.09,170.8,325.97,170.8,325.97
			L170.8,325.97z"/>
		<path class="st9" d="M273.88,155.58h-80.59v46.3h80.59V155.58z"/>
		<path class="st10" d="M213.71,146.75l-53.67,163.14h-41.98l39.66-163.14H213.71z"/>
		<path class="st11" d="M165.01,146.75l-39.03,163.14h-1.62l39.03-163.14H165.01z"/>
		<path class="st9" d="M233.57,246.15h41.98l21.26-60.35c4.9-14.9-6.24-30.21-21.98-30.21c-10.68,0-19.97,7.28-22.48,17.62
			L233.57,246.15L233.57,246.15z"/>
		<path class="st12" d="M311.8,29.93l-18.92-3.84c-2.76-0.56-4.55-3.24-3.98-5.99c0.56-2.75,3.26-4.53,6.02-3.97l18.92,3.84
			c2.76,0.56,4.55,3.24,3.98,5.99C317.25,28.72,314.56,30.49,311.8,29.93z"/>
		<path class="st13" d="M309.43,48.82h-15.64V26.64h23.6v14.25C317.39,45.27,313.83,48.82,309.43,48.82z"/>
		<path class="st14" d="M310.31,109.22c-4.51,8.65-15.2,12.03-23.89,7.54l-31.58-16.19l-2.74-1.4l-27.46-14.08
			c-8.68-4.49-12.07-15.14-7.57-23.79c1.97-3.78,5.23-6.73,9.2-8.29c3.8-1.5,8.09-1.69,12.14-0.32c0.86,0.28,1.72,0.64,2.55,1.07
			l15.49,7.94l46.3,23.74C311.44,89.91,314.82,100.56,310.31,109.22L310.31,109.22z"/>
		<path class="st15" d="M248.7,97.42l2.49-10.98l3.65,14.12L248.7,97.42L248.7,97.42z"/>
		<path class="st13" d="M291.27,46.62c0,0-0.65,2.5-1.62,6.49c-2.98,12.1-9.05,37.84-9.45,48.04c-0.44,11.12,7.03,17.49,16.56,17.86
			c1.33,0.06,2.65-0.04,3.96-0.29c7.67-1.46,13.6-8.01,13.98-16.11l0-0.09l-0.91-54.99L291.27,46.62L291.27,46.62z"/>
		<path class="st16" d="M297.3,54.88c4.96,0,8.98-3.84,8.98-8.57s-4.02-8.57-8.98-8.57c-4.96,0-8.98,3.84-8.98,8.57
			C288.32,51.04,292.34,54.88,297.3,54.88z"/>
		<path class="st16" d="M291.27,46.62c0,0-0.64,2.5-1.62,6.49c2.7,8.25,5.29,16.53,7.75,24.85c4.05,13.7,11.37,20.9,17.29,24.64
			l0-0.09l-0.91-54.99L291.27,46.62L291.27,46.62z"/>
		<path class="st14" d="M253.28,77.24l-5.43,23.92l-1.81,8.01l-8.93,40.05l-0.33,1.5l-1.09,4.86h-80.13l1.1-4.86l0.35-1.5
			l7.05-31.01l6.15-26.22l5.67-24.18c1.69-7.21,7.09-12.97,14.18-15.13c0.01-0.01,0.03-0.02,0.05-0.02c1.88-0.57,3.83-0.87,5.8-0.89
			c0.09-0.01,0.19-0.01,0.28-0.01h36.81c5.9-0.02,11.53,2.47,15.48,6.86C252.84,63.44,254.92,70.26,253.28,77.24L253.28,77.24z"/>
		<path class="st15" d="M197,112.81l-25.12-27.99l-2.81,11.97L197,112.81L197,112.81z"/>
		<path class="st17" d="M221.32,96.8l-17.56-45.04h26.11L221.32,96.8z"/>
		<path class="st13" d="M221.95,60.05l-12.81-8.83l5.88-23.24l13.95,2.43L221.95,60.05z"/>
		<path class="st8" d="M217.38,23.31c0,0,2.95-3.83,8.8-3.54c7.39,0.37,8.38,5.9,8.8,8.06l-7.25,0.96L217.38,23.31L217.38,23.31z"/>
		<path class="st13" d="M233.05,29l0.01,0.14c0.03,0.65-0.01,1.31-0.13,1.96c-0.52,2.98-2.45,5.35-4.98,6.58
			c-2.19,1.07-4.72,1.21-7.02,0.4c-4.1-1.45-6.69-5.67-5.91-10.09c0.86-4.92,5.57-8.22,10.52-7.36c2.64,0.45,4.94,2.05,6.29,4.36
			C232.55,26.2,232.97,27.58,233.05,29L233.05,29z"/>
		<path class="st13" d="M233.57,40.02c0.03,0.51-0.04,1.01-0.19,1.46c-0.65,1.99-2.77,3.42-4.93,3.04l-7.05-1.23l-0.47-5.22
			l-0.82-9.16l4.39,0.03l8.54,0.06l0.01,0.14C233.06,29.14,233.57,40.02,233.57,40.02z"/>
		<path class="st8" d="M232.81,27.38l-6.9,0.3c-2.85,0.08-2.85,4.54-6.33,6.23c-2.87,1.4-5.4,1.44-6.41,1.39l1.86-7.32
			c0.86-4.93,5.57-8.23,10.52-7.37C229.2,21.25,231.92,23.76,232.81,27.38z"/>
		<path class="st8" d="M220.12,23.07c0,0-3.21-0.09-4.69,1c-1.47,1.09-2.57,2.3-2.57,2.3l0.3,8.93L220.12,23.07L220.12,23.07z"/>
		<path class="st13" d="M222.85,33.52c-0.29,1.62-1.83,2.7-3.45,2.41c-1.62-0.28-2.7-1.81-2.42-3.43c0,0,0,0,0-0.01
			c0.29-1.62,1.83-2.7,3.45-2.41C222.05,30.37,223.13,31.9,222.85,33.52z"/>
		<path class="st8" d="M231.72,36.68l1.36-0.06l-0.1-2.13l-0.48,0.02l0.07,1.65l-0.87,0.04L231.72,36.68L231.72,36.68z
			 M231.76,40.15c0.04,0,0.07,0,0.11,0l-0.02-0.48c-0.03,0-0.06,0-0.09,0c-1.24,0-2.16-1.14-2.17-1.15l-0.38,0.3
			C229.26,38.87,230.29,40.15,231.76,40.15z"/>
		<path class="st18" d="M244.35,32.98c0,0.92-0.26,1.76-0.71,2.5c-0.3,0.49-0.7,0.92-1.16,1.27c-0.04,0.03-0.08,0.06-0.11,0.09v0.9
			h-1.87c-1.65,0-3.19-0.85-4.07-2.26c-0.47-0.75-0.72-1.61-0.71-2.5c0-2.62,2.14-4.75,4.78-4.75h1.87v0.9
			c0.04,0.03,0.08,0.06,0.11,0.09C243.65,30.1,244.35,31.49,244.35,32.98L244.35,32.98z"/>
		<path class="st8" d="M242.37,37.73c2.64,0,4.77-2.13,4.77-4.75c0-2.62-2.14-4.75-4.77-4.75s-4.77,2.13-4.77,4.75
			C237.6,35.6,239.73,37.73,242.37,37.73z"/>
		<path class="st8" d="M259.05,28.23h-16.57v9.5h16.57V28.23z"/>
		<path class="st19" d="M253.16,35.47v2.26h-12.67c-1.65,0-3.19-0.85-4.06-2.26H253.16z"/>
		<path class="st18" d="M262.28,32.97c0.01,1.32-0.37,2.62-1.07,3.74c-0.45,0.74-1.04,1.39-1.74,1.91
			c-0.05,0.05-0.11,0.09-0.17,0.13v1.35h-2.81c-2.48,0-4.79-1.28-6.1-3.39c-0.7-1.12-1.07-2.42-1.07-3.74
			c0-3.94,3.21-7.13,7.17-7.13h2.81v1.35c0.06,0.04,0.11,0.09,0.17,0.13C261.24,28.66,262.28,30.75,262.28,32.97z"/>
		<path class="st8" d="M259.3,40.11c3.95,0,7.16-3.19,7.16-7.13c0-3.94-3.21-7.13-7.16-7.13s-7.16,3.19-7.16,7.13
			C252.15,36.92,255.35,40.11,259.3,40.11z"/>
		<path class="st8" d="M284.33,25.86h-24.86V40.1h24.86V25.86z"/>
		<path class="st19" d="M275.5,36.72v3.39h-19.01c-2.48,0-4.79-1.28-6.1-3.39H275.5z"/>
		<path class="st18" d="M285.06,33.45c0,2.05-0.69,3.94-1.86,5.45c-0.48,0.65-1.06,1.22-1.7,1.71c-0.06,0.06-0.14,0.11-0.2,0.15
			v1.71h-3.56c-2.83,0-5.5-1.32-7.22-3.57c-1.19-1.57-1.84-3.48-1.84-5.45c0-4.98,4.05-9.01,9.06-9.01h3.56v1.71
			c0.07,0.05,0.14,0.1,0.2,0.15C283.74,27.99,285.06,30.64,285.06,33.45L285.06,33.45z"/>
		<path class="st8" d="M290.35,33.45c0,1.97-0.65,3.88-1.84,5.45c-1.67,2.2-4.25,3.51-7.01,3.56c-0.07,0.01-0.14,0.01-0.2,0.01
			c-2.83,0-5.5-1.32-7.22-3.57c-1.2-1.57-1.84-3.48-1.84-5.45c0-4.98,4.05-9.01,9.06-9.01c0.07,0,0.14,0,0.21,0.01h0.03
			C286.43,24.56,290.35,28.55,290.35,33.45L290.35,33.45z"/>
		<path class="st8" d="M337.36,24.44H281.5v18.03h55.86V24.44z"/>
		<path class="st18" d="M341.86,33.45c0-3.01-1.49-5.67-3.76-7.31v-1.71h-3.56c-5,0-9.06,4.04-9.06,9.02c0,4.98,4.05,9.02,9.06,9.02
			h3.56v-1.71C340.37,39.12,341.86,36.46,341.86,33.45z"/>
		<path class="st19" d="M338.09,38.9v3.57H281.5v-0.01c-0.07,0.01-0.14,0.01-0.2,0.01h-3.56c-2.83,0-5.5-1.32-7.21-3.57L338.09,38.9
			L338.09,38.9z"/>
		<path class="st20" d="M346.92,35.55c1.15-4.85-1.86-9.71-6.73-10.85c-4.87-1.14-9.75,1.86-10.89,6.71
			c-1.15,4.85,1.86,9.71,6.73,10.85C340.89,43.4,345.77,40.4,346.92,35.55z"/>
		<path class="st21" d="M345.02,33.45c0,3.81-3.1,6.9-6.93,6.9h-0.04c-3.8-0.02-6.89-3.1-6.89-6.9c0-3.32,2.36-6.1,5.5-6.75
			c0.47-0.1,0.95-0.14,1.43-0.14C341.92,26.55,345.02,29.64,345.02,33.45z"/>
		<path class="st22" d="M343.55,33.59c0,3.32-2.36,6.1-5.5,6.75c-3.8-0.02-6.89-3.1-6.89-6.9c0-3.32,2.36-6.1,5.5-6.75
			C340.48,26.72,343.55,29.79,343.55,33.59z"/>
		<path class="st17" d="M338.17,29.06c0.62,1.06-0.02,2.57-1.42,3.38c-1.4,0.81-3.03,0.61-3.65-0.45c-0.62-1.06,0.02-2.57,1.42-3.38
			C335.93,27.8,337.56,28,338.17,29.06z M209.01,46.69l12.05,10.29l-4.99,7.09l-10.59-12.44L209.01,46.69L209.01,46.69z
			 M224.61,48.87l-3.54,8.11l4.66,6.27l2.85-10.85L224.61,48.87L224.61,48.87z"/>
		<path class="st8" d="M221.07,56.98l-4.24,6.04l3.47,4.35l-5.02,13.9l6.05,15.54l3.5-17.54l-2.72-11.87l3.11-4.83L221.07,56.98z"/>
		<path class="st16" d="M299.44,53.85c-0.33,0-0.67-0.05-1-0.15c-0.35-0.11-8.73-2.65-13.31-8.37c-1.82-2.27-2.94-4.35-3.62-6.07
			c-0.9-2.25,0.78-4.7,3.21-4.73c1.43-0.02,2.74,0.82,3.27,2.15c0.45,1.11,1.23,2.59,2.61,4.31c3.18,3.97,9.79,6.03,9.85,6.04
			c1.84,0.55,2.89,2.48,2.35,4.32c0,0,0,0.01,0,0.01C302.34,52.84,300.98,53.85,299.44,53.85L299.44,53.85z M263.92,27.83
			l8.12,24.48c0.64,1.93-0.41,4.02-2.34,4.65c-0.12,0.04-0.25,0.07-0.37,0.1c-1.54,0.35-3.07-0.38-3.92-1.65
			c-0.19-0.29-0.35-0.61-0.46-0.94c-0.21-0.64-0.9-0.98-1.54-0.77c-0.19,0.06-0.36,0.17-0.5,0.32l-9.31,9.8l-0.98,1.03l-0.33,0.35
			l-16.8-15.83l3.22-3.39l1.04-1.1l1.21-1.27c0,0,6.29-6.63,7.23-7.62l3.34-3.51C258.96,24.47,263.32,26.01,263.92,27.83z"/>
		<path class="st13" d="M253.37,64.07c0,0-1.38,2.27-3.62,5.84c-6.79,10.86-21.42,33.76-28.65,41.37c-7.89,8.31-17.94,7.4-25.05,0.7
			c-0.99-0.93-1.87-1.97-2.62-3.1c-4.42-6.66-3.85-15.7,1.86-21.78c0.02-0.02,0.04-0.05,0.07-0.07l41.21-38.78L253.37,64.07
			L253.37,64.07z"/>
		<path class="st16" d="M253.37,64.07c0,0-1.38,2.27-3.62,5.84c-8.02,3.94-15.99,7.99-23.89,12.16
			c-13.01,6.86-23.57,6.68-30.58,5.02c0.02-0.02,0.04-0.05,0.07-0.07l41.21-38.78L253.37,64.07z"/>
		<path class="st15" d="M237.1,149.21l-0.33,1.51h-80.12l0.35-1.51H237.1z"/>
		<path class="st8" d="M286.25,262.23h-56.77l4.03-16.08h42.08c0,0,1.07,6.92,7.12,8.12C288.18,255.36,286.25,262.23,286.25,262.23z
			"/>
		<path class="st13" d="M227.88,27.9c0,0-1.33-2.22-3.22-2.94l-1.89-0.72c0,0,1.4-0.03,3.16,0.78c1.76,0.81,2.66,2.62,2.66,2.62
			L227.88,27.9L227.88,27.9z"/>
		<path class="st13" d="M226.73,25.61c0,0,0.63-0.71,3.15-0.22c2.37,0.46,2.93,1.99,2.93,1.99l-4.41,1.44
			c-0.05,0.02-0.35-1.5-0.35-1.5L226.73,25.61z"/>
	</g>
</g>
</svg>
